<?xml version="1.0" standalone="no"?>
<!DOCTYPE svg PUBLIC "-//W3C//DTD SVG 20010904//EN" "http://www.w3.org/TR/2001/REC-SVG-20010904/DTD/svg10.dtd">
<svg version="1.0" xmlns="http://www.w3.org/2000/svg"
  width="1920.000000pt" height="1920.000000pt" viewBox="0 0 1920.000000 1920.000000"
  preserveAspectRatio="xMidYMid meet">

  <g transform="translate(0.000000,1920.000000) scale(0.100000,-0.100000)"
    fill="#fff" stroke="none">
    <path
      d="M0 9600 l0 -9600 9600 0 9600 0 0 9600 0 9600 -9600 0 -9600 0 0
-9600z m6630 7905 c600 -75 1066 -349 1391 -820 146 -211 284 -509 334 -721
52 -220 60 -321 60 -829 0 -289 -5 -539 -13 -650 -54 -751 -136 -1467 -273
-2390 -72 -491 -153 -979 -188 -1135 -53 -240 -66 -346 -66 -570 0 -215 12
-294 56 -381 l18 -36 103 -7 c923 -63 2438 -785 4108 -1956 183 -128 247 -164
505 -280 632 -286 1355 -503 1965 -589 228 -32 338 -42 564 -50 221 -8 237
-11 289 -60 72 -66 77 -144 16 -264 -130 -258 -386 -652 -625 -963 -1011
-1315 -2281 -2152 -3679 -2424 -343 -67 -843 -109 -1132 -95 l-153 7 0 -621 0
-621 73 0 c87 0 143 -23 180 -71 27 -37 47 -98 42 -126 -2 -10 -6 -30 -10 -45
-7 -34 -58 -94 -97 -114 -24 -13 -99 -15 -480 -15 l-451 1 -41 24 c-103 60
-121 212 -34 293 48 46 86 53 268 53 l170 0 0 633 0 633 -122 18 c-131 19
-381 60 -435 72 l-33 7 0 -417 0 -416 73 0 c120 -1 190 -48 216 -148 21 -77
-19 -165 -91 -204 -43 -23 -43 -23 -494 -23 l-450 0 -42 28 c-120 79 -108 263
21 323 48 22 64 24 219 24 l168 0 2 456 c2 295 -1 458 -7 463 -5 4 -55 20
-110 36 -456 126 -992 348 -1386 575 -1160 666 -1930 1696 -2263 3025 -296
1181 -116 2364 497 3285 159 238 338 451 487 576 44 38 93 87 110 110 229 320
422 1280 535 2669 23 287 55 800 55 886 l0 77 -82 7 c-382 32 -719 218 -969
535 l-64 81 -47 -6 c-97 -14 -420 -8 -548 10 -302 41 -603 128 -914 265 -151
66 -196 116 -196 215 0 47 26 110 55 136 9 8 282 147 607 309 l591 295 32 80
c121 305 341 554 613 698 113 59 279 115 412 137 140 24 485 26 660 5z" />
    <path
      d="M6140 17144 c-14 -2 -59 -9 -100 -15 -89 -13 -216 -52 -285 -87 -175
-88 -332 -249 -429 -439 l-26 -52 27 -15 c16 -7 105 -48 198 -91 238 -108 263
-122 290 -169 48 -82 46 -95 -54 -397 -50 -151 -91 -280 -91 -286 0 -18 124
-166 187 -222 177 -160 362 -238 587 -248 218 -10 433 40 665 156 135 68 205
69 274 3 42 -39 57 -75 57 -132 0 -65 -19 -109 -61 -145 -50 -41 -256 -139
-373 -175 -55 -18 -110 -36 -122 -40 -20 -8 -21 -18 -28 -167 -29 -659 -105
-1509 -187 -2073 -101 -700 -219 -1174 -371 -1488 -67 -139 -147 -243 -260
-340 -268 -232 -542 -633 -726 -1062 -179 -416 -282 -940 -282 -1427 0 -689
218 -1504 572 -2143 574 -1034 1516 -1755 2813 -2153 1802 -554 3476 -273
4900 822 619 475 1197 1116 1636 1813 l90 143 -53 7 c-29 3 -107 11 -173 18
-592 57 -1285 233 -1950 497 -457 181 -670 290 -940 478 -1176 822 -2258 1413
-3103 1695 -359 120 -651 180 -871 181 -88 0 -136 5 -163 16 -79 32 -179 175
-234 336 -88 257 -80 669 21 1107 37 158 126 706 210 1290 271 1879 334 3166
180 3627 -36 106 -125 297 -187 400 -286 474 -693 720 -1278 773 -109 9 -306
12 -360 4z m458 -533 c135 -69 129 -261 -9 -331 -56 -29 -206 -28 -267 1 -116
56 -136 217 -38 308 57 54 229 65 314 22z m753 -8007 c40 -20 75 -67 94 -126
35 -107 124 -327 193 -475 301 -652 732 -1192 1192 -1493 119 -78 346 -189
470 -230 402 -132 845 -130 1300 6 328 99 676 268 1077 523 140 90 303 12 303
-144 0 -100 -31 -133 -260 -273 -1250 -767 -2376 -782 -3310 -42 -144 114
-395 368 -523 529 -303 382 -560 841 -742 1326 -74 197 -79 217 -64 278 28
117 162 177 270 121z m1596 -515 c34 -12 80 -55 98 -89 7 -14 18 -58 24 -98
43 -275 247 -491 511 -538 132 -24 250 -9 387 50 102 43 181 31 241 -38 59
-68 63 -164 10 -239 -27 -37 -151 -97 -268 -129 -74 -20 -107 -23 -260 -22
-147 0 -187 4 -253 22 -345 95 -608 356 -713 707 -18 64 -27 115 -28 176 -1
77 1 89 26 127 16 23 45 50 65 61 42 22 116 27 160 10z m4451 -1840 c55 -27
93 -84 100 -147 9 -101 -125 -411 -263 -606 -86 -121 -242 -288 -355 -379
-276 -223 -619 -357 -997 -388 -173 -14 -424 4 -503 37 -141 59 -153 258 -20
333 37 20 50 22 118 17 256 -19 376 -19 501 3 214 37 421 119 591 235 108 74
293 262 368 375 71 106 137 238 178 356 33 98 64 142 118 166 54 25 110 24
164 -2z" />
    <path
      d="M4685 16048 l-380 -191 60 -19 c104 -32 298 -77 405 -93 133 -20 351
-30 460 -21 l86 7 57 172 c31 94 56 172 54 173 -3 3 -358 164 -360 163 -1 0
-173 -86 -382 -191z" />
  </g>
</svg>
